# xmcd
#
# Track frame offsets:
#	150
#	15070
#	34132
#	50839
#	66172
#	81732
#	97998
#	114274
#	127664
#	143934
#	159637
#	173261
#	190481
#
# Disc length: 2722 seconds
#
# Revision: 1
# Processed by: cddbd v1.5.2PL0 Copyright (c) Steve Scherf et al.
# Submitted via: audiograbber 1.83.01
#
DISCID=a30aa00d
DTITLE=Various Artist - CDX 677
DYEAR=2019
DGENRE=Country
TTITLE0=Dylan Scott - Between An Old Memory And Me
TTITLE1=Dylan Scott ft. Lorrie Morgan - Tell Lorrie ILove her
TTITLE2=Dylan Scott - When You Say Nothimg At All
TTITLE3=Tanya Tucker - Hard Luck
TTITLE4=Kane Brown - Homesick
TTITLE5=Miranda Lambert - It All Comes Out In The Wash
TTITLE6=Rodney Atkins - Thank God For You
TTITLE7=Royal South - Cry Cry
TTITLE8=Michael Austin - The Good Life
TTITLE9=Ricky Cook - I Can't Stand A Woman beatin' Man
TTITLE10=John Conlee - Jesus Tak A Hold
TTITLE11=Darrell Wayne - Not Near Enough
TTITLE12=Amy Jack - Shake And Bake
EXTD=
EXTT0=
EXTT1=
EXTT2=
EXTT3=
EXTT4=
EXTT5=
EXTT6=
EXTT7=
EXTT8=
EXTT9=
EXTT10=
EXTT11=
EXTT12=
PLAYORDER=
